HIERARCHY
ROOT Hips
{
  OFFSET 263.056 91.6644 -274.608
  CHANNELS 6 Xposition Yposition Zposition Zrotation Xrotation Yrotation
  JOINT LeftUpLeg
  {
    OFFSET 8.64259 1.95398 -2.38835
    CHANNELS 3 Zrotation Xrotation Yrotation
    JOINT LeftLeg
    {
      OFFSET 43.7702 0 0
      CHANNELS 3 Zrotation Xrotation Yrotation
      JOINT LeftFoot
      {
        OFFSET 40.6238 0 0
        CHANNELS 3 Zrotation Xrotation Yrotation
        JOINT LeftToeBase
        {
          OFFSET 12.7242 0 0
          CHANNELS 3 Zrotation Xrotation Yrotation
          End Site
          {
            OFFSET 0 0 0
          }
        }
      }
    }
  }
  JOINT RightUpLeg
  {
    OFFSET -8.2249 1.95398 -2.59336
    CHANNELS 3 Zrotation Xrotation Yrotation
    JOINT RightLeg
    {
      OFFSET 43.5653 0 0
      CHANNELS 3 Zrotation Xrotation Yrotation
      JOINT RightFoot
      {
        OFFSET 40.6238 0 0
        CHANNELS 3 Zrotation Xrotation Yrotation
        JOINT RightToeBase
        {
          OFFSET 12.7242 0 0
          CHANNELS 3 Zrotation Xrotation Yrotation
          End Site
          {
            OFFSET 0 0 0
          }
        }
      }
    }
  }
  JOINT Spine
  {
    OFFSET 0.165834 0.87714 6.61349
    CHANNELS 3 Zrotation Xrotation Yrotation
    JOINT Spine1
    {
      OFFSET 7.38963 1.71661e-005 0
      CHANNELS 3 Zrotation Xrotation Yrotation
      JOINT Spine2
      {
        OFFSET 11.9445 1.14441e-005 0
        CHANNELS 3 Zrotation Xrotation Yrotation
        JOINT Spine3
        {
          OFFSET 14.7254 4.19617e-005 0
          CHANNELS 3 Zrotation Xrotation Yrotation
          JOINT Spine4
          {
            OFFSET 10.9679 0 0
            CHANNELS 3 Zrotation Xrotation Yrotation
            JOINT RightShoulder
            {
              OFFSET 2.46616 -1.6653 3.69651
              CHANNELS 3 Zrotation Xrotation Yrotation
              JOINT RightArm
              {
                OFFSET 13.0012 0 0
                CHANNELS 3 Zrotation Xrotation Yrotation
                JOINT RightForeArm
                {
                  OFFSET 28.7848 1.52588e-005 0
                  CHANNELS 3 Zrotation Xrotation Yrotation
                  JOINT RightHand
                  {
                    OFFSET 26.5688 1.52588e-005 0
                    CHANNELS 3 Zrotation Xrotation Yrotation
                    End Site
                    {
                      OFFSET 0 0 0
                    }
                  }
                }
              }
            }
            JOINT LeftShoulder
            {
              OFFSET 2.38034 -1.29275 -3.7523
              CHANNELS 3 Zrotation Xrotation Yrotation
              JOINT LeftArm
              {
                OFFSET 16.3182 6.10352e-005 0
                CHANNELS 3 Zrotation Xrotation Yrotation
                JOINT LeftForeArm
                {
                  OFFSET 27.0901 0 0
                  CHANNELS 3 Zrotation Xrotation Yrotation
                  JOINT LeftHand
                  {
                    OFFSET 24.5451 1.52588e-005 0
                    CHANNELS 3 Zrotation Xrotation Yrotation
                    End Site
                    {
                      OFFSET 0 0 0
                    }
                  }
                }
              }
            }
            JOINT Neck
            {
              OFFSET 5.0226 -0.0266342 0
              CHANNELS 3 Zrotation Xrotation Yrotation
              JOINT Head
              {
                OFFSET 6.69364 2.86102e-005 0
                CHANNELS 3 Zrotation Xrotation Yrotation
                End Site
                {
                  OFFSET 0 0 0
                }
              }
            }
          }
        }
      }
    }
  }
}
MOTION
Frames:	17
Frame Time:	0.0416667
29.2549 91.3339 -27.9597 92.9704 -45.8785 86.0273 -172.054 26.0344 83.6018 -32.0909 14.3714 -4.63519 60.2735 4.03172 12.4827 39.3191 10.948 -9.14387 177.62 2.45684 84.083 -59.5654 -1.15739 -6.91492 37.2405 4.98881 5.24174 33.7584 0.173735 7.27942 0.928416 7.71988 -88.9612 11.4129 2.33213 1.83296 -0.257065 2.41053 1.72853 -22.7916 1.67359 2.44897 -2.77894 1.67362 2.44897 80.9084 -50.1569 -114.487 22.7455 -9.32939 4.01618 -9.6949 -9.23984 -53.3563 -13.7343 -1.06504 4.03707 -98.6561 -44.1818 63.8062 -38.9798 4.24432 21.2183 2.38759 12.0006 -16.7016 5.05866 0.597352 6.1675 3.77777 -5.84942 1.82228 2.43006 -6.28187 -4.43655 
35.5141 92.9444 -23.7768 93.1716 -43.8407 86.9619 -173.045 19.9732 83.2711 -30.8618 13.0426 -3.56565 64.4907 7.68845 10.998 34.3815 6.29224 -11.2008 178.06 10.6969 85.6221 -65.9856 5.94134 -5.57932 43.6552 2.16453 2.26243 28.0331 -0.454511 5.87675 0.632751 7.71296 -89.1559 11.4351 1.65332 1.51385 -0.235625 1.71832 1.43961 -22.7682 1.12199 1.94065 -2.75556 1.12199 1.94065 80.8323 -51.4423 -114.111 23.9749 -9.70075 6.9138 -7.3949 -10.0565 -47.5192 -11.2723 -0.897049 4.06446 -99.2668 -43.63 62.642 -38.9459 5.46132 16.6947 1.98059 8.16173 -19.9928 8.59851 0.858016 5.48314 3.18972 -5.2753 2.22307 2.12248 -5.73755 -3.80049 
41.8445 95.0358 -19.829 93.6259 -40.7623 89.1662 -174.49 12.8333 84.0127 -26.5745 14.8913 -1.92777 63.4589 6.66094 11.2422 35.6703 7.48888 -10.0725 177.321 16.5387 87.7254 -63.8813 8.65416 -3.71036 49.7743 0.332181 0.56179 34.1049 0.265572 5.63744 0.216894 7.70968 -89.5083 11.4512 0.661197 0.912633 -0.219932 0.700721 0.882646 -22.7529 0.356354 1.06914 -2.74025 0.356363 1.06913 81.0209 -52.2406 -113.539 25.2876 -10.0862 10.5524 -7.48696 -12.7025 -43.0701 -5.59911 -0.493596 3.5073 -99.652 -43.2032 61.8711 -37.9713 5.46016 12.7823 2.99085 5.20653 -27.4436 12.0635 1.04293 4.58491 2.49924 -4.27551 1.80146 2.26643 -4.5678 -1.43265 
47.639 96.5208 -15.7719 92.6404 -37.4095 89.2667 -174.685 6.19613 84.6015 -20.4802 16.5458 -1.47197 62.4464 5.72286 10.5513 37.5706 9.28376 -9.55956 176.905 21.0757 88.6159 -54.7328 9.56576 -1.8947 56.0232 -1.02338 -0.50757 39.2299 0.862155 7.8315 -0.250979 7.63303 -89.7366 11.6079 -0.375813 0.563891 -0.063086 -0.350635 0.579872 -22.5981 -0.527897 0.424877 -2.58546 -0.527911 0.424872 80.7563 -53.1557 -113.586 25.8806 -10.5685 14.6578 -8.40837 -16.3449 -39.7344 -1.82159 -0.306525 3.84397 -100.339 -42.8287 60.6483 -35.404 6.2582 8.72294 3.63843 3.31684 -36.2518 14.2279 0.986005 2.98528 2.55398 -3.47197 1.72061 2.3428 -3.68987 0.0845015 
52.9225 96.9049 -11.501 91.1827 -34.4605 88.2587 -174.218 1.59403 85.5117 -17.1363 18.8183 -1.60501 61.8674 4.65411 9.61227 40.4074 12.0407 -8.37073 177.166 23.4098 88.3365 -39.1013 11.053 -0.305199 60.02 -1.91842 -1.09145 42.0779 1.14246 5.91014 -0.635677 7.5514 -89.7856 11.7742 -1.16346 0.550563 0.103618 -1.13812 0.601229 -22.4355 -1.27514 0.175389 -2.42286 -1.27513 0.175387 80.1891 -54.1348 -114.037 26.7299 -10.3604 18.6344 -7.71337 -17.7629 -37.0394 0.805221 -0.151888 3.80113 -100.271 -41.4859 60.1698 -31.9895 6.53502 4.06965 6.77455 4.76823 -45.377 14.6488 0.955516 2.61198 3.61716 -3.03051 0.986914 2.03729 -3.09674 1.08153 
58.3027 96.145 -6.92132 90.4442 -32.5374 86.8514 -173.739 -2.42221 85.6924 -16.8059 19.9268 -1.73376 62.4724 4.79195 8.8663 44.6957 16.4412 -6.35629 178.53 23.0103 86.9868 -18.9074 8.05861 -0.420784 62.1326 -2.33365 -1.34517 48.9359 1.5457 2.66561 -0.917816 7.53942 -89.7017 11.8015 -1.68496 0.77358 0.131354 -1.64929 0.846995 -22.4123 -1.83955 0.231257 -2.39964 -1.83954 0.231258 80.8616 -54.3645 -113.001 28.283 -9.78475 21.5475 -7.82716 -19.0417 -35.1513 3.00801 -0.00596009 4.49952 -99.8354 -39.9244 60.168 -27.4564 6.70888 -1.04667 8.06 3.71357 -52.6109 14.4376 0.867798 2.10921 4.99265 -2.60908 -0.116515 1.446 -2.44606 2.24382 
63.795 94.8229 -1.9762 89.3391 -31.5457 85.5565 -173.323 -6.1144 86.5193 -16.654 23.3376 -1.53415 62.9131 7.7611 12.6591 48.93 20.1185 -8.1805 -179.144 23.846 86.3649 -3.27884 8.91455 -2.06371 63.4777 -1.96202 -1.06852 53.3585 2.39411 5.71347 -1.09527 7.50523 -89.6552 11.8724 -2.01584 0.903445 0.202657 -1.97409 0.991305 -22.3445 -2.19413 0.255587 -2.33186 -2.19412 0.255583 82.1397 -54.5853 -111.111 28.8858 -9.31829 23.7526 -8.12708 -19.7628 -34.3919 4.84937 0.11008 4.65767 -99.0142 -38.796 60.9891 -23.4004 5.03691 -5.53236 9.11249 2.60402 -58.5488 13.7872 0.805715 1.93358 6.65332 -2.28388 -1.26868 0.491659 -1.87166 3.50584 
69.3085 93.2055 3.23022 90.2639 -29.6059 85.133 -173.211 -9.09849 88.004 -21.0488 28.3736 -0.547422 61.7676 6.19375 11.2103 53.9759 25.74 -5.37511 -179.392 25.0654 85.9195 -2.24175 11.7956 -1.6573 68.0655 -3.52801 -1.88225 50.3656 2.93823 13.0092 -1.40719 7.59852 -89.557 11.6913 -2.59106 1.15415 0.022372 -2.53776 1.26711 -22.533 -2.81807 0.321522 -2.52035 -2.81806 0.321512 83.0282 -55.6363 -109.509 28.0045 -7.4594 25.6268 -8.96582 -19.5538 -34.2181 6.55175 0.158894 3.70826 -98.1489 -37.6467 61.8991 -20.8435 3.21928 -9.16287 9.66323 2.25711 -60.9177 14.8744 0.969887 2.61644 7.47929 -1.92639 -3.04083 -0.0615897 -1.1166 5.24016 
75.7141 91.5993 8.85203 91.2305 -30.5411 86.8508 -173.321 -11.7018 90.4423 -26.6546 30.5632 1.10952 58.1237 1.27152 6.91967 58.2978 32.7735 1.55088 -179.491 28.9378 87.8274 -16.1695 9.63875 -0.759116 63.0716 -1.72517 -0.902862 48.2267 2.05791 7.72409 -1.45881 7.56841 -89.7251 11.7492 -2.77223 0.84099 0.0808073 -2.73253 0.962263 -22.478 -2.89673 -0.031746 -2.46536 -2.89672 -0.0317435 83.5159 -54.5737 -109.154 28.0689 -5.33989 27.558 -7.91686 -17.4584 -32.7994 5.48737 0.132091 3.69039 -97.4047 -37.5371 63.0878 -21.0178 1.22073 -7.97293 10.7004 2.15092 -63.4979 15.4843 1.13619 3.43042 7.13935 -0.844526 -2.52269 -1.04996 -0.211318 5.39565 
82.6345 90.8514 14.2605 92.4482 -31.6885 91.8275 -172.614 -12.3932 95.5097 -32.0411 28.0944 2.50207 45.0211 -10.2189 -3.00372 59.9113 41.5212 14.952 179.957 31.2472 92.4029 -30.9879 7.85498 0.337442 58.864 0.106382 0.237244 40.1334 0.911416 5.78978 -1.41385 7.57307 -90.2697 11.728 -2.93862 -0.228472 0.0604217 -2.94583 -0.0988049 -22.4985 -2.73399 -1.10174 -2.48583 -2.734 -1.10173 82.2838 -54.6244 -110.892 26.047 -4.12519 28.2453 -8.12127 -17.673 -31.1023 2.85915 0.00451067 4.53322 -97.6235 -39.2625 63.4567 -21.3124 0.770381 -4.54607 10.1353 1.33085 -64.7826 16.9879 1.4503 4.64491 6.90257 0.157989 -1.51339 -2.38155 0.505326 6.01349 
88.4977 90.2265 19.1926 94.543 -34.0403 94.3505 -173.64 -7.16831 96.4025 -46.1436 23.7277 2.58792 34.9425 -17.2134 -8.88209 35.5344 7.97669 14.8792 178.584 29.7324 95.3028 -41.1826 7.27826 1.4314 66.4394 -1.98825 -1.06469 32.6672 -0.0204789 9.50933 -1.1241 7.69158 -90.3968 11.4864 -2.42167 -0.543418 -0.182385 -2.44328 -0.436238 -22.7315 -2.14636 -1.24639 -2.71887 -2.14639 -1.2464 82.77 -53.7584 -110.485 25.9891 -3.60118 26.0937 -7.02122 -15.7763 -31.2452 0.768982 -0.0985596 5.12554 -98.8147 -39.9941 61.8361 -22.7993 1.36928 -0.80982 7.85855 0.431887 -61.9717 18.2881 1.54624 4.58879 7.17008 0.23682 -0.94306 -2.92303 0.439714 5.31997 
94.0897 91.4798 24.3136 95.1483 -35.3957 94.7538 -174.641 1.9753 96.0283 -58.2582 21.567 1.89283 40.4604 -13.554 -2.72138 38.8835 12.3959 12.1056 178.624 24.4368 96.3324 -42.1324 6.99167 1.20581 70.752 -2.83124 -1.4537 29.1669 -0.563329 9.87888 -0.749624 7.70553 -90.3343 11.4602 -1.64768 -0.499135 -0.209748 -1.66806 -0.426121 -22.7508 -1.42148 -0.971328 -2.73812 -1.42151 -0.971335 82.564 -52.2915 -111.277 28.1605 -3.31167 23.3214 -7.59477 -14.5923 -32.8042 -2.62336 -0.345462 5.14621 -99.7428 -40.8294 60.7164 -24.227 4.42543 -0.546379 7.45186 2.53812 -53.1187 17.41 1.52627 4.88116 6.62579 -0.767585 -0.73502 -2.84867 -0.592849 3.52147 
99.3366 93.5105 29.3772 95.5302 -36.8397 93.6393 -174.401 10.2139 93.5903 -60.5362 17.7779 0.87222 46.0709 -9.0698 1.57243 42.228 16.6965 10.8091 179.374 17.1151 96.3043 -37.8359 6.31327 -0.177097 72.6088 -3.37352 -1.6862 28.1567 -0.659971 9.09375 -0.42198 7.705 -90.0743 11.464 -0.874238 -0.0587286 -0.206607 -0.875973 -0.0201957 -22.744 -0.816157 -0.318773 -2.73133 -0.816158 -0.318775 82.4146 -51.3303 -111.831 29.2082 -5.47869 19.5168 -7.6645 -13.8179 -36.3847 -4.0076 -0.438494 4.87586 -99.844 -41.294 60.7592 -27.2193 6.31625 0.282773 5.97797 5.02062 -42.3298 15.6978 1.28261 4.2535 5.85856 -1.44818 -0.747372 -2.98597 -1.27462 2.30029 
104.442 95.3328 34.1577 95.5989 -40.2641 92.5053 -172.92 16.4104 91.7038 -54.1923 12.1913 -0.382439 50.3539 -5.94916 1.13527 43.4099 18.4366 11.6918 179.818 10.2075 95.5813 -32.619 3.9022 -1.43802 71.6371 -3.23391 -1.64202 30.6255 -0.355995 10.0291 0.0408684 7.66943 -89.8083 11.5346 0.171033 0.364427 -0.136399 0.186945 0.356529 -22.6712 0.053602 0.398976 -2.65851 0.0536111 0.398977 82.1041 -50.9266 -112.432 28.3952 -8.27984 15.1768 -8.50123 -13.5384 -42.0079 -4.71907 -0.44948 3.40605 -99.9661 -41.8475 60.8069 -30.0847 7.7324 2.88358 4.48221 7.52524 -33.4925 13.6276 1.06116 3.81101 5.37265 -1.49369 -0.524644 -3.64607 -1.37562 1.65924 
109.609 96.3576 38.6957 94.5753 -43.1945 91.4446 -172.681 20.2927 90.485 -40.5642 11.6138 -1.31231 54.2354 -2.2195 4.17358 44.8174 20.609 12.8963 179.801 4.7171 94.8402 -28.2844 1.64105 -2.02667 70.0734 -2.8964 -1.49203 33.9154 0.12252 10.8752 0.355809 7.61131 -89.6929 11.6491 0.851839 0.52308 -0.0216398 0.874035 0.485079 -22.5574 0.655267 0.754915 -2.54476 0.655262 0.754906 82.8139 -49.2196 -111.988 27.1101 -11.7933 9.36309 -9.70574 -13.6363 -46.3178 -5.77964 -0.502128 2.96214 -100.587 -42.6391 60.1812 -32.9832 8.19542 6.59129 2.84343 8.78416 -26.7823 12.0745 0.899473 3.44581 4.82401 -1.85563 1.14374 -2.78783 -2.03408 -0.5156 
114.94 96.4037 42.8505 92.6053 -46.6832 90.1957 -173.487 21.2547 90.5062 -19.6141 10.2371 -1.26971 55.184 -0.745349 4.59263 48.0031 25.9958 16.1534 179.351 0.172853 93.9602 -25.1664 -2.63073 -2.47647 70.983 -3.61995 -1.8419 35.1623 0.31083 10.7876 0.671569 7.52167 -89.6751 11.8277 1.48836 0.489461 0.157586 1.50846 0.423465 -22.3821 1.27245 0.914197 -2.36948 1.27246 0.9142 83.6664 -46.8038 -111.558 25.4102 -13.684 3.73699 -11.1618 -12.1898 -52.3093 -5.69882 -0.528275 3.87175 -100.867 -43.5777 60.1556 -35.867 8.34146 10.6021 2.28296 11.5131 -22.8697 9.50902 0.78129 3.97836 6.02115 -1.26926 3.05948 -3.29402 -1.83257 -1.46253 
120.565 95.6624 46.884 91.2224 -49.9482 90.1096 -175.161 23.8507 91.8368 -6.49636 8.6815 0.508901 60.9634 2.86121 5.19717 48.5115 27.6113 18.5005 178.819 -3.77879 93.1177 -23.5834 -5.72717 -2.89196 71.4166 -4.3532 -2.22008 40.1896 1.11488 10.642 0.965826 7.51001 -89.7491 11.8528 2.03847 0.282347 0.183491 2.04893 0.192316 -22.3626 1.85935 0.882138 -2.34996 1.85934 0.882143 84.381 -44.3647 -111.327 23.6286 -13.9788 -1.71197 -13.9746 -11.4699 -57.7591 -6.02304 -0.531998 3.34883 -99.8913 -43.9845 61.8254 -38.9495 8.02301 13.9834 2.25136 14.1701 -20.9004 7.21593 0.619678 4.0853 7.30814 -0.759921 4.18035 -3.40786 -1.59029 -1.86455 
